<svg xmlns="http://www.w3.org/2000/svg" width="880" height="300" font-family="'Segoe UI', Arial, sans-serif" font-size="14">
  <defs>
    <marker id="arrow" markerWidth="10" markerHeight="10" refX="6" refY="3" orient="auto" markerUnits="strokeWidth">
      <path d="M0,0 L0,6 L6,3 z" fill="#0e639c" />
    </marker>
  </defs>
  <rect width="100%" height="100%" fill="#1e1e1e" rx="6"/>
  <text x="20" y="30" fill="#dcdcdc" font-size="18" font-weight="bold">Authorization Code + PKCE Flow (Placeholder)</text>

  <rect x="30" y="70" width="130" height="60" rx="6" fill="#2d2d30" stroke="#3e3e42"/>
  <text x="45" y="105" fill="#c5c5c5">Swing App</text>

  <rect x="220" y="70" width="160" height="60" rx="6" fill="#2d2d30" stroke="#3e3e42"/>
  <text x="240" y="95" fill="#c5c5c5">Browser</text>
  <text x="240" y="112" fill="#9cdcfe" font-size="12">Auth Request</text>

  <rect x="450" y="70" width="180" height="60" rx="6" fill="#2d2d30" stroke="#3e3e42"/>
  <text x="470" y="95" fill="#c5c5c5">Keycloak</text>
  <text x="470" y="112" fill="#9cdcfe" font-size="12">/auth & /token</text>

  <rect x="690" y="70" width="160" height="60" rx="6" fill="#2d2d30" stroke="#3e3e42"/>
  <text x="710" y="95" fill="#c5c5c5">Swing App</text>
  <text x="710" y="112" fill="#9cdcfe" font-size="12">(Callback)</text>

  <line x1="160" y1="100" x2="220" y2="100" stroke="#0e639c" stroke-width="2" marker-end="url(#arrow)"/>
  <line x1="380" y1="100" x2="450" y2="100" stroke="#0e639c" stroke-width="2" marker-end="url(#arrow)"/>
  <line x1="630" y1="100" x2="690" y2="100" stroke="#0e639c" stroke-width="2" marker-end="url(#arrow)"/>

  <text x="170" y="92" fill="#ce9178" font-size="12">Open Auth URL</text>
  <text x="390" y="92" fill="#ce9178" font-size="12">User Login</text>
  <text x="640" y="92" fill="#ce9178" font-size="12">Redirect with code</text>

  <line x1="770" y1="140" x2="540" y2="220" stroke="#0e639c" stroke-width="2" marker-end="url(#arrow)"/>
  <text x="600" y="190" fill="#ce9178" font-size="12">POST code + verifier</text>
  <line x1="540" y1="220" x2="120" y2="220" stroke="#0e639c" stroke-width="2" marker-end="url(#arrow)"/>
  <text x="270" y="212" fill="#ce9178" font-size="12">Tokens (access/id/refresh)</text>

  <circle cx="95" cy="220" r="40" fill="#2d2d30" stroke="#3e3e42"/>
  <text x="60" y="215" fill="#c5c5c5" font-size="12">Display
Tokens</text>

  <text x="20" y="285" fill="#757575" font-size="12">Placeholder flow SVG - replace with animated GIF (login-flow.gif)</text>
</svg>
