<svg xmlns="http://www.w3.org/2000/svg" width="900" height="560" font-family="'Segoe UI', Arial, sans-serif" font-size="14">
  <rect x="0" y="0" width="900" height="560" fill="#1e1e1e" rx="6"/>
  <rect x="12" y="12" width="876" height="40" fill="#2d2d30" rx="4"/>
  <text x="30" y="38" fill="#dcdcdc" font-size="18">Keycloak Swing Demo</text>
  <rect x="20" y="70" width="300" height="150" fill="#252526" stroke="#3e3e42"/>
  <text x="30" y="95" fill="#c5c5c5" font-weight="bold">Login Panel</text>
  <text x="30" y="120" fill="#9cdcfe">clientId:</text>
  <text x="110" y="120" fill="#c5c5c5">desktop-client</text>
  <text x="30" y="140" fill="#9cdcfe">realm:</text>
  <text x="110" y="140" fill="#c5c5c5">demo-realm</text>
  <rect x="30" y="155" width="120" height="34" fill="#0e639c" rx="4"/>
  <text x="60" y="177" fill="#ffffff" font-weight="bold">Login</text>
  <rect x="340" y="70" width="540" height="470" fill="#1b1b1c" stroke="#3e3e42"/>
  <text x="350" y="95" fill="#c5c5c5" font-weight="bold">Log Output</text>
  <text x="350" y="120" fill="#6a9955">[INFO]</text>
  <text x="410" y="120" fill="#c5c5c5">Opening browser with authorization request...</text>
  <text x="350" y="142" fill="#6a9955">[INFO]</text>
  <text x="410" y="142" fill="#c5c5c5">Awaiting callback on http://localhost:8080/callback</text>
  <text x="350" y="164" fill="#6a9955">[INFO]</text>
  <text x="410" y="164" fill="#c5c5c5">Authorization code received, exchanging for tokens...</text>
  <text x="350" y="186" fill="#6a9955">[INFO]</text>
  <text x="410" y="186" fill="#c5c5c5">Access Token: eyJhbGciOi... (redacted)</text>
  <text x="350" y="208" fill="#6a9955">[INFO]</text>
  <text x="410" y="208" fill="#c5c5c5">ID Token: eyJraWQiOi... (redacted)</text>
  <text x="350" y="230" fill="#6a9955">[INFO]</text>
  <text x="410" y="230" fill="#c5c5c5">Refresh Token: eyJzdWIi... (redacted)</text>
  <rect x="340" y="250" width="540" height="2" fill="#333"/>
  <text x="350" y="280" fill="#c586c0" font-weight="bold">Formatted JSON (example)</text>
  <rect x="350" y="295" width="520" height="230" fill="#252526" stroke="#3e3e42"/>
  <text x="360" y="315" fill="#c5c5c5" font-family="Consolas, monospace">{</text>
  <text x="380" y="333" fill="#c5c5c5" font-family="Consolas, monospace">"access_token": "eyJhbGciOi...",</text>
  <text x="380" y="351" fill="#c5c5c5" font-family="Consolas, monospace">"refresh_token": "eyJraWQiOi...",</text>
  <text x="380" y="369" fill="#c5c5c5" font-family="Consolas, monospace">"id_token": "eyJ0eXAiOi..."</text>
  <text x="360" y="387" fill="#c5c5c5" font-family="Consolas, monospace">}</text>
  <text x="24" y="540" fill="#757575" font-size="12">Placeholder SVG screenshot - replace with real screenshot.png</text>
</svg>
